# xmcd CD database file
#
# Track frame offsets:
#	183
#	13408
#	30110
#	46643
#	66733
#	85000
#	99578
#	114360
#	128085
#	144615
#	156170
#	167085
#	180335
#	190260
#	203400
#	214383
#
# Disc length: 3025 seconds
#
# Revision: 0
# Processed by: cddbd v1.4PL0 Copyright (c) Steve Scherf et al.
# Submitted via: Feurio! 1.61 - http://www.feurio.com
#
DISCID=d30bcf10
DTITLE=John Lee Hooker - Moanin´ Blues
DYEAR=1900
DGENRE=Blues
TTITLE0=Drive Me Away
TTITLE1=Wrong Doin´ Woman
TTITLE2=She Left Me On Wednesday
TTITLE3=Nightmare
TTITLE4=Sally Mae
TTITLE5=Love Me All The Time
TTITLE6=Moanin´ Blues
TTITLE7=You´re Gonna Miss Me When I´m Gone
TTITLE8=Mama, You Got A Daughter
TTITLE9=Wheel And Deal
TTITLE10=Tennessee Blues
TTITLE11=Baby Lee
TTITLE12=Stop Talking
TTITLE13=I See You When You´re Waek
TTITLE14=Little Fine Woman
TTITLE15=Mambo Chillun
EXTD=
EXTT0=
EXTT1=
EXTT2=
EXTT3=
EXTT4=
EXTT5=
EXTT6=
EXTT7=
EXTT8=
EXTT9=
EXTT10=
EXTT11=
EXTT12=
EXTT13=
EXTT14=
EXTT15=
PLAYORDER=
